<svg id="logo" width="467" height="107" viewBox="0 0 467 107" fill="none" xmlns="http://www.w3.org/2000/svg"> <path d="M52.344 51.304C55.992 51.88 59.304 53.368 62.28 55.768C65.352 58.168 67.752 61.144 69.48 64.696C71.304 68.248 72.216 72.04 72.216 76.072C72.216 81.16 70.92 85.768 68.328 89.896C65.736 93.928 61.944 97.144 56.952 99.544C52.056 101.848 46.248 103 39.528 103H2.08801V2.632H38.088C44.904 2.632 50.712 3.784 55.512 6.088C60.312 8.296 63.912 11.32 66.312 15.16C68.712 19 69.912 23.32 69.912 28.12C69.912 34.072 68.28 39.016 65.016 42.952C61.848 46.792 57.624 49.576 52.344 51.304ZM15.192 45.976H37.224C43.368 45.976 48.12 44.536 51.48 41.656C54.84 38.776 56.52 34.792 56.52 29.704C56.52 24.616 54.84 20.632 51.48 17.752C48.12 14.872 43.272 13.432 36.936 13.432H15.192V45.976ZM38.376 92.2C44.904 92.2 49.992 90.664 53.64 87.592C57.288 84.52 59.112 80.248 59.112 74.776C59.112 69.208 57.192 64.84 53.352 61.672C49.512 58.408 44.376 56.776 37.944 56.776H15.192V92.2H38.376Z" stroke="#4070A9" stroke-width="4" mask="url(#path-1-outside-1)"/> <path d="M103.505 13.288V46.84H140.081V57.64H103.505V92.2H144.401V103H90.4005V2.48801H144.401V13.288H103.505Z" stroke="#4070A9" stroke-width="4" mask="url(#path-1-outside-1)"/> <path d="M236.229 60.52C236.229 63.016 236.085 65.656 235.797 68.44H172.725C173.205 76.216 175.845 82.312 180.645 86.728C185.541 91.048 191.445 93.208 198.357 93.208C204.021 93.208 208.725 91.912 212.469 89.32C216.309 86.632 218.997 83.08 220.533 78.664H234.645C232.533 86.248 228.309 92.44 221.973 97.24C215.637 101.944 207.765 104.296 198.357 104.296C190.869 104.296 184.149 102.616 178.197 99.256C172.341 95.896 167.733 91.144 164.373 85C161.013 78.76 159.333 71.56 159.333 63.4C159.333 55.24 160.965 48.088 164.229 41.944C167.493 35.8 172.053 31.096 177.909 27.832C183.861 24.472 190.677 22.792 198.357 22.792C205.845 22.792 212.469 24.424 218.229 27.688C223.989 30.952 228.405 35.464 231.477 41.224C234.645 46.888 236.229 53.32 236.229 60.52ZM222.693 57.784C222.693 52.792 221.589 48.52 219.381 44.968C217.173 41.32 214.149 38.584 210.309 36.76C206.565 34.84 202.389 33.88 197.781 33.88C191.157 33.88 185.493 35.992 180.789 40.216C176.181 44.44 173.541 50.296 172.869 57.784H222.693Z" stroke="#4070A9" stroke-width="4" mask="url(#path-1-outside-1)"/> <path d="M266.63 13.288V46.84H303.206V57.64H266.63V92.2H307.526V103H253.526V2.48801H307.526V13.288H266.63Z" stroke="#4070A9" stroke-width="4" mask="url(#path-1-outside-1)"/> <path d="M377.61 51.304C381.258 51.88 384.57 53.368 387.546 55.768C390.618 58.168 393.018 61.144 394.746 64.696C396.57 68.248 397.482 72.04 397.482 76.072C397.482 81.16 396.186 85.768 393.594 89.896C391.002 93.928 387.21 97.144 382.218 99.544C377.322 101.848 371.514 103 364.794 103H327.354V2.632H363.354C370.17 2.632 375.978 3.784 380.778 6.088C385.578 8.296 389.178 11.32 391.578 15.16C393.978 19 395.178 23.32 395.178 28.12C395.178 34.072 393.546 39.016 390.282 42.952C387.114 46.792 382.89 49.576 377.61 51.304ZM340.458 45.976H362.49C368.634 45.976 373.386 44.536 376.746 41.656C380.106 38.776 381.786 34.792 381.786 29.704C381.786 24.616 380.106 20.632 376.746 17.752C373.386 14.872 368.538 13.432 362.202 13.432H340.458V45.976ZM363.642 92.2C370.17 92.2 375.258 90.664 378.906 87.592C382.554 84.52 384.378 80.248 384.378 74.776C384.378 69.208 382.458 64.84 378.618 61.672C374.778 58.408 369.642 56.776 363.21 56.776H340.458V92.2H363.642Z" stroke="#4070A9" stroke-width="4" mask="url(#path-1-outside-1)"/> <path d="M425.458 92.2H464.194V103H410.482V92.2L448.786 34.744H410.77V24.088H463.906V34.744L425.458 92.2Z" stroke="#4070A9" stroke-width="4" mask="url(#path-1-outside-1)"/> </svg>